<?xml version="1.0" standalone="no"?>
<!DOCTYPE svg PUBLIC "-//W3C//DTD SVG 1.0//EN" "http://www.w3.org/TR/2001/REC-SVG-20010904/DTD/svg10.dtd">
<svg xmlns="http://www.w3.org/2000/svg" xmlns:xlink="http://www.w3.org/1999/xlink" id="body_1" width="735" height="948">

<defs>
    <clipPath  id="1">

    <path id=""  clip-rule="evenodd" transform="matrix(1 0 0 1 0 0)"  d="M551.25 711L0 711L0 711L0 -0.75L0 -0.75L551.25 -0.75L551.25 -0.75L551.25 711z" />    </clipPath>
</defs>

<g transform="matrix(1.3333 0 0 1.3333 0 0)">
	<g clip-path="url(#1)" >
    <path id=""  transform="matrix(1 0 0 -1 0 711)"  d="M544.1955 9.164249L544.1955 9.164249L544.1955 9.164249L544.1955 704.83575L544.1955 704.83575L6.3059998 704.83575L6.3059998 704.83575L6.4440002 9.164249L6.4440002 9.164249L544.1955 9.164249z" stroke="#000000" stroke-width="1.5" fill="#008837" fill-rule="evenodd" />
    <path id=""  transform="matrix(1 0 0 -1 0 711)"  d="M244.52475 125.179504L244.52475 125.179504L244.52475 125.179504L244.52475 100.570496L244.52475 100.570496L305.83575 100.570496L305.83575 100.570496L305.83575 125.179504L305.83575 125.179504L544.0545 357.0705L544.0545 357.0705L273.4935 617.08575L273.4935 617.08575L6.4440002 357.0705L6.4440002 357.0705L244.52475 125.179504z" stroke="#008837" stroke-width="1.26675" fill="#C68230" fill-rule="evenodd" />
    <path id=""  transform="matrix(1 0 0 -1 0 711)"  d="M305.83575 518.64825L305.83575 518.64825L305.83575 518.64825L301.47675 515.97675L301.47675 515.97675L298.66425 513.4455L298.66425 513.4455L295.5705 511.1955L295.5705 511.1955L292.33575 509.22675L292.33575 509.22675L288.96075 507.6795L288.96075 507.6795L285.3045 506.41425L285.3045 506.41425L281.508 505.4295L281.508 505.4295L277.5705 504.867L277.5705 504.867L273.4935 504.58575L273.4935 504.58575L269.694 504.867L269.694 504.867L265.6185 505.4295L265.6185 505.4295L261.96225 506.41425L261.96225 506.41425L258.16275 507.6795L258.16275 507.6795L254.78775 509.22675L254.78775 509.22675L251.556 511.1955L251.556 511.1955L248.60025 513.4455L248.60025 513.4455L245.78775 515.97675L245.78775 515.97675L244.52475 518.64825L244.52475 518.64825L107.41275 385.758L107.41275 385.758L110.22525 384.0705L110.22525 384.0705L112.7565 381.258L112.7565 381.258L115.14975 378.3045L115.14975 378.3045L117.1185 375.21075L117.1185 375.21075L118.66275 371.83575L118.66275 371.83575L120.069 368.3205L120.069 368.3205L120.91275 364.66425L120.91275 364.66425L121.6185 360.72675L121.6185 360.72675L121.7565 357.0705L121.7565 357.0705L121.6185 352.992L121.6185 352.992L120.91275 349.1955L120.91275 349.1955L120.069 345.53925L120.069 345.53925L118.66275 342.02325L118.66275 342.02325L117.1185 338.64825L117.1185 338.64825L115.14975 335.5545L115.14975 335.5545L112.7565 332.46075L112.7565 332.46075L110.22525 329.78925L110.22525 329.78925L107.41275 327.39825L107.41275 327.39825L104.181 325.28925L104.181 325.28925L259.0065 174.39825L259.0065 174.39825L291.492 174.39825L291.492 174.39825L446.46075 325.4295L446.46075 325.4295L443.08575 327.39825L443.08575 327.39825L440.41425 329.78925L440.41425 329.78925L437.742 332.46075L437.742 332.46075L435.492 335.5545L435.492 335.5545L433.383 338.64825L433.383 338.64825L431.83575 342.02325L431.83575 342.02325L430.4295 345.53925L430.4295 345.53925L429.58575 349.1955L429.58575 349.1955L428.883 352.992L428.883 352.992L428.742 357.0705L428.742 357.0705L428.883 360.72675L428.883 360.72675L429.58575 364.66425L429.58575 364.66425L430.4295 368.3205L430.4295 368.3205L431.83575 371.83575L431.83575 371.83575L433.383 375.21075L433.383 375.21075L435.492 378.3045L435.492 378.3045L437.742 381.258L437.742 381.258L440.41425 384.0705L440.41425 384.0705L443.22675 386.46075L443.22675 386.46075L305.83575 518.64825z" stroke="#A80000" stroke-width="1.26675" fill="#008837" fill-rule="evenodd" />
    <path id=""  transform="matrix(1 0 0 -1 0 711)"  d="M313.008 357.0705C 313.2945 378.2115 294.117 395.43976 273.4935 395.4615L273.4935 395.4615L273.4935 395.4615C 252.91875 395.48248 234.0015 377.9715 233.97525 357.0705L233.97525 357.0705L233.97525 357.0705C 233.94826 335.8155 252.6825 318.5985 273.4935 318.53925L273.4935 318.53925L273.4935 318.53925C 294.3405 318.48 313.365 335.69775 313.008 357.0705z" stroke="#008837" stroke-width="1.26675" fill="#A84E00" fill-rule="nonzero" />
    <path id=""  transform="matrix(1 0 0 -1 0 711)"  d="M273.4935 135.72675L273.4935 135.72675L273.4935 135.72675L500.60175 357.0705L500.60175 357.0705L273.4935 578.5545L273.4935 578.5545L46.10025 357.0705L46.10025 357.0705L273.4935 135.72675z" stroke="#FFFFFF" stroke-width="7.875" fill="none" />
    <path id=""  transform="matrix(1 0 0 -1 0 711)"  d="M6.4440002 300.96075L6.4440002 300.96075L6.4440002 300.96075L244.52475 68.9295L244.52475 68.9295L305.83575 68.9295L305.83575 68.9295L544.0545 300.96075L544.0545 300.96075L544.0545 9.164249L544.0545 9.164249L6.4440002 9.164249L6.4440002 9.164249L6.4440002 300.96075z" stroke="#000000" stroke-width="1.5" fill="#C68230" fill-rule="evenodd" />
    <path id=""  transform="matrix(1 0 0 -1 0 711)"  d="M14.931001 321.58575L14.931001 321.58575L14.931001 321.58575L235.14975 107.132996" stroke="#FFFFFF" stroke-width="7.875" stroke-linecap="square" fill="none" />
    <path id=""  transform="matrix(1 0 0 -1 0 711)"  d="M316.10175 109.382996L316.10175 109.382996L316.10175 109.382996L536.1795 323.83575" stroke="#FFFFFF" stroke-width="7.875" stroke-linecap="square" fill="none" />
    <path id=""  transform="matrix(1 0 0 -1 0 711)"  d="M255.4935 153.3045L255.4935 153.3045L255.4935 153.3045L273.4935 163.992L273.4935 163.992L291.492 153.3045L291.492 153.3045L291.492 121.664246L291.492 121.664246L255.4935 121.804504L255.4935 121.804504L255.4935 153.3045z" stroke="#BC4E00" stroke-width="7.875" fill="#FFFFFF" fill-rule="evenodd" />
    <path id=""  transform="matrix(1 0 0 -1 0 711)"  d="M49.6185 381.6795L49.6185 381.6795L49.6185 381.6795L74.931 357.0705L74.931 357.0705L49.6185 332.46075L49.6185 332.46075L24.444 357.0705L24.444 357.0705L49.6185 381.6795z" stroke="#BC4E00" stroke-width="7.875" fill="#FFFFFF" fill-rule="evenodd" />
    <path id=""  transform="matrix(1 0 0 -1 0 711)"  d="M273.4935 599.508L273.4935 599.508L273.4935 599.508L298.66425 574.89825L298.66425 574.89825L273.4935 550.4295L273.4935 550.4295L248.181 574.89825L248.181 574.89825L273.4935 599.508z" stroke="#BC4E00" stroke-width="7.875" fill="#FFFFFF" fill-rule="evenodd" />
    <path id=""  transform="matrix(1 0 0 -1 0 711)"  d="M497.08575 381.6795L497.08575 381.6795L497.08575 381.6795L522.39825 357.0705L522.39825 357.0705L497.08575 332.46075L497.08575 332.46075L471.91425 357.0705L471.91425 357.0705L497.08575 381.6795z" stroke="#BC4E00" stroke-width="7.875" fill="#FFFFFF" fill-rule="evenodd" />
	</g>
</g>
</svg>