<?xml version="1.0" standalone="no"?>
<!DOCTYPE svg PUBLIC "-//W3C//DTD SVG 20010904//EN"
 "http://www.w3.org/TR/2001/REC-SVG-20010904/DTD/svg10.dtd">
<svg version="1.0" xmlns="http://www.w3.org/2000/svg"
 width="600.000000pt" height="550.000000pt" viewBox="0 0 600.000000 550.000000"
 preserveAspectRatio="xMidYMid meet">

<g transform="translate(0.000000,550.000000) scale(0.100000,-0.100000)"
fill="#000000" stroke="none">
<path d="M2870 5493 c-743 -51 -1361 -322 -1935 -849 -339 -311 -708 -819
-897 -1233 l-41 -91 839 -847 c461 -465 1047 -1057 1302 -1314 l463 -468 -19
-38 c-61 -118 -58 -280 6 -408 32 -64 134 -165 195 -193 165 -77 326 -64 476
37 118 80 194 223 194 366 0 82 -21 179 -50 224 -14 22 -13 25 24 64 21 22
608 618 1306 1323 697 706 1267 1286 1267 1289 0 29 -175 338 -295 520 -597
906 -1382 1462 -2250 1594 -174 27 -409 37 -585 24z m540 -38 c298 -41 564
-122 835 -255 527 -258 995 -684 1407 -1280 133 -193 324 -533 316 -564 -2 -7
-538 -555 -1193 -1218 -654 -662 -1239 -1254 -1299 -1315 l-109 -112 26 -59
c120 -267 -40 -570 -331 -624 -181 -34 -374 67 -459 239 -33 67 -38 86 -41
168 -4 96 2 132 40 217 l21 47 -943 953 c-519 524 -1105 1115 -1302 1314
l-359 360 88 175 c198 390 450 738 757 1044 570 569 1233 876 2006 929 113 8
429 -3 540 -19z"/>
<path d="M2099 3369 c-354 -359 -643 -657 -641 -663 2 -6 19 -49 40 -96 32
-75 36 -95 37 -170 0 -80 -3 -90 -43 -175 l-43 -89 99 -101 c54 -55 323 -332
597 -615 274 -283 523 -541 555 -573 l57 -58 34 19 c52 31 136 52 204 52 66 0
167 -23 202 -46 12 -7 26 -14 32 -14 7 0 1070 1082 1264 1286 l39 41 -25 49
c-61 120 -73 241 -36 360 11 38 29 83 39 100 l18 31 -542 539 c-297 297 -591
588 -652 647 l-111 109 -49 -26 c-121 -63 -293 -55 -390 19 -18 14 -35 25 -37
25 -3 0 -294 -293 -648 -651z m714 587 c110 -58 247 -58 362 -1 l50 25 638
-638 c350 -350 635 -641 633 -647 -3 -5 -17 -39 -32 -75 -50 -121 -43 -283 17
-402 11 -21 19 -42 19 -48 0 -10 -564 -593 -1062 -1096 l-209 -211 -62 26
c-54 22 -76 26 -167 26 -94 0 -113 -3 -174 -29 l-68 -29 -48 49 c-27 27 -316
325 -643 663 l-594 614 23 41 c76 132 81 241 19 395 l-37 94 253 256 c359 362
1014 1021 1015 1021 1 0 31 -15 67 -34z"/>
</g>
</svg>
